#!OML:ASF H:\GeneralSubjects\Female5\Project 1\Capture day 1\Session 1\Female5.ASF
:FULLY-SPECIFIED
:DEGREES
116
root 34.8264 14.7836 2.41791 143.01 -87.3405 -120.476
lowerback 13.0257 2.41615 -1.35915
upperback -7.58056 3.26048 2.32912
thorax -16.1803 1.77795 2.55287
lowerneck -19.716 -1.12383 -1.08432
upperneck 26.0857 0.527843 -7.33871
head 11.8814 -0.991863 -2.51229
rclavicle 2.68359e-015 -1.90833e-014
rhumerus -39.5495 26.689 -80.1094
rradius 63.2321
rwrist -13.5506
rhand -26.757 -14.6457
rfingers 7.12502
rthumb -0.185427 -44.6254
lclavicle 2.68359e-015 -1.90833e-014
lhumerus -65.7029 1.90705 78.5122
lradius 62.7249
lwrist 2.25397
lhand -30.7937 34.5956
lfingers 7.12502
lthumb -4.0839 64.5362
rfemur 11.0681 2.69619 33.1119
rtibia 12.3276
rfoot -6.19069 -12.8298
rtoes -2.33199
lfemur -53.6609 -12.6592 -25.9102
ltibia 46.6657
lfoot 11.7095 -21.8117
ltoes -53.8318
117
root 34.3321 14.8165 2.42336 135.323 -88.2336 -112.453
lowerback 13.0874 1.95577 -1.9158
upperback -7.57158 2.51468 2.28571
thorax -16.1853 1.49589 3.01981
lowerneck -20.208 -0.931487 -0.784233
upperneck 26.0397 0.680642 -7.14573
head 11.9645 -0.867545 -2.47173
rclavicle 4.77083e-015 4.77083e-015
rhumerus -40.3748 26.8316 -80.6212
rradius 63.3566
rwrist -14.3499
rhand -27.5844 -16.9044
rfingers 7.12502
rthumb -0.984518 -46.8819
lclavicle 4.77083e-015 4.77083e-015
lhumerus -64.2182 2.28075 79.1932
lradius 62.7299
lwrist 2.2322
lhand -32.2458 36.7639
lfingers 7.12502
lthumb -5.48604 66.6729
rfemur 8.5351 -1.10504 30.6187
rtibia 17.8582
rfoot -0.307152 -14.4426
rtoes 13.2556
lfemur -51.4652 -13.7238 -27.0238
ltibia 46.2482
lfoot 12.1789 -22.1528
ltoes -53.865
118
root 33.8455 14.8541 2.42365 115.143 -88.8628 -92.0198
lowerback 13.3272 1.46954 -2.72095
upperback -7.4807 1.72183 2.54451
thorax -16.2121 1.24279 3.98796
lowerneck -21.0298 -0.66272 -0.613953
upperneck 26.0337 1.01376 -7.00609
head 12.1394 -0.688975 -2.4058
rclavicle 4.37326e-015 -1.35174e-014
rhumerus -41.2973 27.4268 -81.0189
rradius 63.2499
rwrist -15.1641
rhand -28.4447 -19.2594
rfingers 7.12502
rthumb -1.81545 -49.2314
lclavicle 4.37326e-015 -1.35174e-014
lhumerus -62.2565 2.84714 80.4332
lradius 63.2984
lwrist 2.22711
lhand -32.8894 36.9288
lfingers 7.12502
lthumb -6.10741 66.8208
rfemur 4.72721 -4.14841 28.8563
rtibia 25.4321
rfoot 3.54254 -13.1899
rtoes -2.38666
lfemur -48.9501 -14.464 -27.976
ltibia 45.4155
lfoot 12.6618 -22.3996
ltoes -53.4927
119
root 33.3678 14.8865 2.41812 74.3439 -89.241 -50.958
lowerback 13.4428 1.46171 -3.09333
upperback -7.60283 1.57861 2.14574
thorax -16.421 1.19438 3.78179
lowerneck -20.5687 -0.946481 -0.0166544
upperneck 25.658 0.269602 -6.5971
head 11.8588 -0.881966 -2.44956
rclavicle 0 -1.35174e-014
rhumerus -43.4063 25.9922 -81.9389
rradius 63.1035
rwrist -15.5691
rhand -27.5583 -18.3289
rfingers 7.12502
rthumb -0.959334 -48.3065
lclavicle 0 -1.35174e-014
lhumerus -59.9774 1.06993 81.8577
lradius 64.0255
lwrist 2.67205
lhand -33.213 35.875
lfingers 7.12502
lthumb -6.41981 65.7577
rfemur 0.47783 -6.4557 27.5465
rtibia 33.4738
rfoot 6.19165 -14.7552
rtoes -1.57354
lfemur -46.4902 -14.8891 -28.9721
ltibia 44.5903
lfoot 14.8189 -21.7113
ltoes -55.3428
120
root 32.8936 14.9133 2.40982 9.01396 -89.1238 14.5483
lowerback 13.6193 1.20669 -3.80413
upperback -7.53285 1.04407 1.87422
thorax -16.4095 1.00922 4.02031
lowerneck -20.5041 -0.964703 0.341727
upperneck 25.0022 0.000868703 -6.17124
head 11.5761 -0.886817 -2.3686
rclavicle 5.96354e-016 2.78299e-015
rhumerus -44.9119 25.56 -82.8696
rradius 62.6688
rwrist -16.4398
rhand -26.2015 -16.4387
rfingers 7.12502
rthumb 0.351157 -46.4181
lclavicle 5.96354e-016 2.78299e-015
lhumerus -57.4741 -0.277571 83.3176
lradius 65.8532
lwrist 3.3676
lhand -32.395 38.7362
lfingers 7.12502
lthumb -5.63007 68.6414
rfemur -4.12675 -8.52414 26.2241
rtibia 41.5693
rfoot 6.55257 -14.7407
rtoes -11.5783
lfemur -43.9737 -15.1545 -30.2465
ltibia 43.8915
lfoot 16.3745 -21.2204
ltoes -55.9233
121
root 32.4272 14.9329 2.39302 -25.0753 -88.445 48.698
lowerback 14.0183 0.92016 -4.84635
upperback -7.46415 0.390007 1.65377
thorax -16.5324 0.814571 4.544
lowerneck -20.5275 -0.905212 0.635086
upperneck 24.4056 -0.130706 -5.73846
head 11.3442 -0.842599 -2.25874
rclavicle 2.48481e-015 9.14409e-015
rhumerus -46.4856 25.5962 -83.9854
rradius 61.6484
rwrist -16.6499
rhand -26.505 -16.5298
rfingers 7.12502
rthumb 0.0580347 -46.5095
lclavicle 2.48481e-015 9.14409e-015
lhumerus -54.6786 -1.46566 84.6094
lradius 67.5995
lwrist 3.48539
lhand -33.2898 37.1
lfingers 7.12502
lthumb -6.49398 66.9804
rfemur -8.98603 -10.4084 24.9822
rtibia 49.1034
rfoot 2.61923 -19.3793
rtoes -0.436686
lfemur -41.3241 -15.1481 -31.7078
ltibia 43.1606
lfoot 17.5926 -20.7078
ltoes -56.2876
122
root 31.9698 14.9431 2.36499 -41.1796 -87.6148 64.8559
lowerback 14.6038 0.735799 -5.99579
upperback -7.48343 -0.192533 1.32262
thorax -16.881 0.667145 4.99043
lowerneck -20.6839 -0.876524 0.919097
upperneck 24.1133 -0.339526 -5.13805
head 11.2526 -0.82178 -2.10988
rclavicle -4.47266e-015 5.96354e-015
rhumerus -48.1112 25.1673 -85.0564
rradius 60.7168
rwrist -17.2627
rhand -25.5881 -19.9407
rfingers 7.12502
rthumb 0.943574 -49.9184
lclavicle -4.47266e-015 5.96354e-015
lhumerus -51.5641 -2.97982 85.777
lradius 69.2457
lwrist 3.40211
lhand -32.5034 37.2288
lfingers 7.12502
lthumb -5.73478 67.1312
rfemur -14.2646 -11.8113 24.0303
rtibia 56.0188
rfoot -1.04348 -21.2591
rtoes 3.1078
lfemur -38.5649 -14.8292 -33.224
ltibia 42.1366
lfoot 18.4747 -20.168
ltoes -56.6865
